<svg xmlns="http://www.w3.org/2000/svg" aria-hidden="true" style="position:absolute;width:0;height:0;overflow:hidden">
  <defs>
    <symbol id="icon-icon_tw_mob" viewBox="0 0 32 32">
      <path fill="none" stroke="#f7f7f7" stroke-linecap="round" stroke-linejoin="round" stroke-width="2.08"
        d="M30.668 4.001a14.542 14.542 0 0 1-4.187 2.04 5.975 5.975 0 0 0-6.637-1.661 5.977 5.977 0 0 0-3.843 5.661v1.333a14.211 14.211 0 0 1-12-6.04s-5.333 12 6.667 17.333a15.519 15.519 0 0 1-9.333 2.667c12 6.667 26.667 0 26.667-15.333a5.966 5.966 0 0 0-.107-1.107 10.288 10.288 0 0 0 2.773-4.893z"
        style="stroke:var(--color1, #f7f7f7)" />
    </symbol>
    <symbol id="icon-icon_fcb_mob" viewBox="0 0 32 32">
      <path fill="none" stroke="#f7f7f7" stroke-linecap="round" stroke-linejoin="round" stroke-width="2.08"
        d="M24.001 2.666h-4a6.67 6.67 0 0 0-6.667 6.667v4h-4v5.333h4v10.667h5.333V18.666h4L24 13.333h-5.333v-4a1.335 1.335 0 0 1 1.334-1.334h4V2.666z"
        style="stroke:var(--color1, #f7f7f7)" />
    </symbol>
    <symbol id="icon-icon_inst_mob" viewBox="0 0 32 32">
      <path fill="none" stroke="#f7f7f7" stroke-linecap="round" stroke-linejoin="round" stroke-width="2.08"
        d="M22.666 2.666H9.333a6.667 6.667 0 0 0-6.667 6.667v13.333a6.667 6.667 0 0 0 6.667 6.667h13.333a6.667 6.667 0 0 0 6.667-6.667V9.333a6.667 6.667 0 0 0-6.667-6.667z"
        style="stroke:var(--color1, #f7f7f7)" />
      <path fill="none" stroke="#f7f7f7" stroke-linecap="round" stroke-linejoin="round" stroke-width="2.08"
        d="M21.334 15.16a5.338 5.338 0 0 1-6.123 6.049 5.334 5.334 0 0 1-3.916-7.663 5.338 5.338 0 0 1 5.547-2.878 5.334 5.334 0 0 1 4.493 4.493zM23.334 8.666h.016"
        style="stroke:var(--color1, #f7f7f7)" />
    </symbol>
    <symbol id="icon-icon_close_tab" viewBox="0 0 32 32">
      <path fill="none" stroke="#f7f7f7" stroke-linecap="round" stroke-linejoin="round" stroke-width="2"
        d="M24 8 8 24M8 8l16 16" style="stroke:var(--color1, #f7f7f7)" />
    </symbol>
    <symbol id="icon-close-mob" viewBox="0 0 32 32">
      <path fill="none" stroke="#f7f7f7" stroke-linecap="round" stroke-linejoin="round" stroke-width="2.286"
        d="M24 8 8 24M8 8l16 16" style="stroke:var(--color1, #f7f7f7)" />
    </symbol>
    <symbol id="icon-menu-mob" viewBox="0 0 32 32">
      <path fill="none" stroke="#f7f7f7" stroke-linecap="round" stroke-linejoin="round" stroke-width="2.286"
        d="M4 16h24M4 8h24M4 24h16" style="stroke:var(--color1, #f7f7f7)" />
    </symbol>
    <symbol id="icon-inst-tab">
      <path stroke="#F7F7F7" stroke-linecap="round" stroke-linejoin="round" stroke-width="1.5"
        d="M17 2H7a5 5 0 0 0-5 5v10a5 5 0 0 0 5 5h10a5 5 0 0 0 5-5V7a5 5 0 0 0-5-5Z" />
      <path stroke="#F7F7F7" stroke-linecap="round" stroke-linejoin="round" stroke-width="1.5"
        d="M16 11.37a4 4 0 1 1-7.913 1.174A4 4 0 0 1 16 11.37ZM17.5 6.5h.012" />
    </symbol>
    <symbol id="icon-fcb-tab">
      <path stroke="#F7F7F7" stroke-linecap="round" stroke-linejoin="round" stroke-width="1.5"
        d="M18 2h-3a5 5 0 0 0-5 5v3H7v4h3v8h4v-8h3l1-4h-4V7a1 1 0 0 1 1-1h3V2Z" />
    </symbol>
    <symbol id="icon-tw-tab">
      <path stroke="#F7F7F7" stroke-linecap="round" stroke-linejoin="round" stroke-width="1.5"
        d="M23 3a10.9 10.9 0 0 1-3.14 1.53 4.48 4.48 0 0 0-7.86 3v1A10.66 10.66 0 0 1 3 4s-4 9 5 13a11.64 11.64 0 0 1-7 2c9 5 20 0 20-11.5 0-.279-.028-.556-.08-.83A7.72 7.72 0 0 0 23 3Z" />
    </symbol>
  </defs>
</svg>